<?xml version="1.0" encoding="UTF-8"?>
<svg id="Layer_2" data-name="Layer 2" xmlns="http://www.w3.org/2000/svg" viewBox="0 0 526 526">
  <defs>
    <style>
      .cls-1, .cls-2, .cls-3, .cls-4 {
        stroke: #e95224;
        stroke-miterlimit: 10;
      }

      .cls-1, .cls-3 {
        stroke-width: 4.66px;
      }

      .cls-1, .cls-4 {
        fill: #e95224;
      }

      .cls-2, .cls-3 {
        fill: none;
      }

      .cls-2, .cls-4 {
        stroke-width: 6px;
      }
    </style>
  </defs>
  <g id="Layer_1-2" data-name="Layer 1">
    <path class="cls-4" d="m304.08,6.23l-84.92,513.09c.12.02.24.04.36.06,14.14,2.38,28.66,3.62,43.48,3.62,143.59,0,260-116.41,260-260,0-129.61-94.85-237.08-218.92-256.77Zm66.42,391.77c-37.28,0-67.5-30.22-67.5-67.5s30.22-67.5,67.5-67.5,67.5,30.22,67.5,67.5-30.22,67.5-67.5,67.5Z"/>
    <path class="cls-2" d="m263,3C119.41,3,3,119.41,3,263c0,128.65,93.45,235.48,216.16,256.32L304.08,6.23c-13.38-2.13-27.1-3.23-41.08-3.23Zm-109.5,260c-37.28,0-67.5-30.22-67.5-67.5s30.22-67.5,67.5-67.5,67.5,30.22,67.5,67.5-30.22,67.5-67.5,67.5Z"/>
    <circle class="cls-1" cx="153.5" cy="195.5" r="67.5"/>
    <circle class="cls-3" cx="370.5" cy="330.5" r="67.5"/>
  </g>
</svg>